<svg width="19" height="16" viewBox="0 0 19 16" fill="none" xmlns="http://www.w3.org/2000/svg">
                        <path
                            d="M18.1417 8.5151C18.6791 9.38867 18.7282 10.4799 18.2717 11.397C17.8153 12.3141 16.9167 12.9294 15.8969 13.0223C14.8799 13.1151 13.886 12.6711 13.2735 11.8498L6.19503 11.8498C5.58253 12.6711 4.58866 13.1151 3.57167 13.0223C2.55468 12.9294 1.65615 12.3141 1.19967 11.397C0.743177 10.4799 0.792293 9.38576 1.32679 8.51509C1.86417 7.64152 2.81471 7.11041 3.83747 7.11041L9.73715 7.11041L8.85018 8.29452L10.6212 8.29452L9.73426 7.11041L15.6339 7.11042C16.6538 7.11042 17.6043 7.64152 18.1417 8.5151ZM12.3894 10.6656L11.5053 9.48154L7.96609 9.48154L7.08201 10.6656L12.3894 10.6656Z"
                            fill="#69D5FF" />
                        <path
                            d="M6.78516 13.0367L12.6848 13.0367C12.6848 13.8232 12.3728 14.5778 11.821 15.1322C11.2663 15.6894 10.518 15.9999 9.73499 15.9999C8.95203 15.9999 8.20374 15.6894 7.64902 15.1322C7.09719 14.5749 6.78516 13.8232 6.78516 13.0367Z"
                            fill="#69D5FF" />
                        <path
                            d="M11.821 0.867707C12.3757 1.42494 12.6848 2.17661 12.6848 2.96312C12.6848 3.74962 12.3757 4.5013 11.821 5.05853C11.2663 5.61576 10.518 5.92629 9.73499 5.92629C8.95203 5.92629 8.20374 5.61576 7.64902 5.05853C7.0943 4.5013 6.78516 3.75252 6.78516 2.96602C6.78516 2.17661 7.0943 1.42784 7.64902 0.870608C8.20374 0.310478 8.95203 -6.06563e-05 9.73499 -6.05194e-05C10.518 -6.03825e-05 11.2663 0.310478 11.821 0.867707Z"
                            fill="#69D5FF" />
                    </svg>